<svg width="126" height="126" viewBox="0 0 126 126" fill="none" xmlns="http://www.w3.org/2000/svg">
<path fill-rule="evenodd" clip-rule="evenodd" d="M27.9991 10.6174C38.3594 3.69488 50.5398 0 63 0C79.7086 0 95.7329 6.63748 107.548 18.4523C119.363 30.2671 126 46.2914 126 63C126 75.4602 122.305 87.6406 115.383 98.0009C108.46 108.361 98.6208 116.436 87.1091 121.204C75.5973 125.973 62.9301 127.22 50.7093 124.789C38.4885 122.359 27.263 116.358 18.4523 107.548C9.64159 98.737 3.64142 87.5115 1.21056 75.2907C-1.22031 63.0699 0.0272973 50.4027 4.79562 38.8909C9.56394 27.3792 17.6388 17.5399 27.9991 10.6174ZM34.3629 105.858C42.8395 111.522 52.8053 114.545 63 114.545C76.6707 114.545 89.7815 109.115 99.4481 99.4481C109.115 89.7815 114.545 76.6707 114.545 63C114.545 52.8053 111.522 42.8395 105.858 34.3629C100.195 25.8863 92.1443 19.2796 82.7256 15.3782C73.3069 11.4769 62.9428 10.4561 52.944 12.445C42.9452 14.4339 33.7606 19.3431 26.5519 26.5519C19.3431 33.7606 14.4339 42.9451 12.445 52.944C10.4561 62.9428 11.4769 73.3069 15.3782 82.7256C19.2796 92.1443 25.8863 100.195 34.3629 105.858Z" fill="white"/>
<path fill-rule="evenodd" clip-rule="evenodd" d="M63 114.545C52.8053 114.545 42.8395 111.522 34.3629 105.858C25.8863 100.195 19.2796 92.1443 15.3782 82.7256C11.4769 73.3069 10.4561 62.9428 12.445 52.944C14.4339 42.9451 19.3431 33.7606 26.5519 26.5519C33.7606 19.3431 42.9452 14.4339 52.944 12.445C62.9428 10.4561 73.3069 11.4769 82.7256 15.3782C92.1443 19.2796 100.195 25.8863 105.858 34.3629C111.522 42.8395 114.545 52.8053 114.545 63C114.545 76.6707 109.115 89.7815 99.4481 99.4481C89.7815 109.115 76.6707 114.545 63 114.545ZM80.1818 45.8182H57.2727C55.7538 45.8182 54.297 46.4216 53.2229 47.4957C52.1489 48.5697 51.5455 50.0265 51.5455 51.5454C51.5455 53.0644 52.1489 54.5212 53.2229 55.5952C54.297 56.6693 55.7538 57.2727 57.2727 57.2727H68.7273C73.2842 57.2727 77.6544 59.0829 80.8767 62.3052C84.0989 65.5274 85.9091 69.8976 85.9091 74.4545C85.9091 79.0114 84.0989 83.3817 80.8767 86.6039C77.6544 89.8261 73.2842 91.6363 68.7273 91.6363V97.3636C68.7273 98.8826 68.1239 100.339 67.0498 101.413C65.9757 102.487 64.519 103.091 63 103.091C61.481 103.091 60.0243 102.487 58.9502 101.413C57.8761 100.339 57.2727 98.8826 57.2727 97.3636V91.6363H45.8182C44.2992 91.6363 42.8425 91.0329 41.7684 89.9589C40.6943 88.8848 40.0909 87.428 40.0909 85.9091C40.0909 84.3901 40.6943 82.9334 41.7684 81.8593C42.8425 80.7852 44.2992 80.1818 45.8182 80.1818H68.7273C70.2462 80.1818 71.703 79.5784 72.7771 78.5043C73.8511 77.4303 74.4545 75.9735 74.4545 74.4545C74.4545 72.9356 73.8511 71.4788 72.7771 70.4047C71.703 69.3307 70.2462 68.7273 68.7273 68.7273H57.2727C52.7158 68.7273 48.3456 66.917 45.1234 63.6948C41.9011 60.4726 40.0909 56.1023 40.0909 51.5454C40.0909 46.9885 41.9011 42.6183 45.1234 39.3961C48.3456 36.1739 52.7158 34.3636 57.2727 34.3636V28.6364C57.2727 27.1174 57.8761 25.6606 58.9502 24.5866C60.0243 23.5125 61.481 22.9091 63 22.9091C64.519 22.9091 65.9757 23.5125 67.0498 24.5866C68.1239 25.6606 68.7273 27.1174 68.7273 28.6364V34.3636H80.1818C81.7008 34.3636 83.1575 34.967 84.2316 36.0411C85.3057 37.1152 85.9091 38.5719 85.9091 40.0909C85.9091 41.6099 85.3057 43.0666 84.2316 44.1407C83.1575 45.2148 81.7008 45.8182 80.1818 45.8182Z" fill="white"/>
</svg>
