<svg width="64" height="64" viewBox="0 0 64 64" fill="none" xmlns="http://www.w3.org/2000/svg">
<path d="M32 0C40.4868 9.3246e-05 48.6259 3.37197 54.627 9.37305C60.628 15.3742 63.9999 23.5132 64 32C64 38.3289 62.1225 44.516 58.6064 49.7783C55.0903 55.0404 50.093 59.1425 44.2461 61.5645C38.3989 63.9864 31.9642 64.6194 25.7568 63.3848C19.5495 62.15 13.8473 59.1022 9.37207 54.627C4.89711 50.1518 1.84997 44.4502 0.615234 38.2432C-0.61945 32.0358 0.0135643 25.6011 2.43555 19.7539C4.85757 13.9068 8.95942 8.90871 14.2217 5.39258C19.4839 1.87658 25.6712 0 32 0ZM32 11.6367C31.2286 11.6367 30.4879 11.9429 29.9424 12.4883C29.397 13.0338 29.0909 13.7745 29.0908 14.5459V17.4541C26.7764 17.4541 24.5566 18.3743 22.9199 20.0107C21.2833 21.6473 20.3634 23.8672 20.3633 26.1816C20.3633 28.4962 21.2833 30.7159 22.9199 32.3525C24.5566 33.9892 26.7762 34.9092 29.0908 34.9092H34.9092C35.6804 34.9093 36.4204 35.2155 36.9658 35.7607C37.5113 36.3063 37.8183 37.0469 37.8184 37.8184C37.8183 38.5897 37.5112 39.3295 36.9658 39.875C36.4204 40.4205 35.6806 40.7274 34.9092 40.7275H23.2725C22.5012 40.7276 21.7613 41.0339 21.2158 41.5791C20.6703 42.1246 20.3633 42.8653 20.3633 43.6367C20.3634 44.4081 20.6703 45.1479 21.2158 45.6934C21.7613 46.2388 22.501 46.5459 23.2725 46.5459H29.0908V49.4541C29.0908 50.2256 29.3969 50.9662 29.9424 51.5117C30.4879 52.0573 31.2285 52.3633 32 52.3633C32.7713 52.3632 33.5112 52.0571 34.0566 51.5117C34.6021 50.9662 34.9092 50.2255 34.9092 49.4541V46.5459C37.2236 46.5458 39.4435 45.6258 41.0801 43.9893C42.7166 42.3526 43.6367 40.1328 43.6367 37.8184C43.6367 35.5039 42.7166 33.2841 41.0801 31.6475C39.4435 30.0109 37.2236 29.0909 34.9092 29.0908H29.0908C28.3195 29.0908 27.5797 28.7846 27.0342 28.2393C26.4886 27.6937 26.1816 26.9532 26.1816 26.1816C26.1817 25.4102 26.4887 24.6705 27.0342 24.125C27.5797 23.5796 28.3194 23.2725 29.0908 23.2725H40.7275C41.4988 23.2723 42.2388 22.9662 42.7842 22.4209C43.3296 21.8754 43.6367 21.1347 43.6367 20.3633C43.6366 19.592 43.3296 18.8521 42.7842 18.3066C42.2388 17.7612 41.4989 17.4543 40.7275 17.4541H34.9092V14.5459C34.9091 13.7744 34.6021 13.0338 34.0566 12.4883C33.5112 11.9429 32.7713 11.6368 32 11.6367Z" fill="white"/>
</svg>
