<svg width="159" height="136" viewBox="0 0 159 136" fill="none" xmlns="http://www.w3.org/2000/svg">
<path d="M79.3333 32.4132C87.9397 32.4132 94.9165 25.1572 94.9165 16.2066C94.9165 7.25594 87.9397 0 79.3333 0C70.7269 0 63.75 7.25594 63.75 16.2066C63.75 25.1572 70.7269 32.4132 79.3333 32.4132Z" fill="white"/>
<path d="M88.8529 34.9029H69.813C64.7565 34.6879 59.8215 36.4888 56.092 39.9101C52.3626 43.3315 50.1438 48.0933 49.9231 53.1495V77.7994C49.9478 80.7071 50.8702 83.5361 52.5641 85.8995C55.5832 90.1118 59.3864 94.4748 59.3864 99.6573V123.869C59.2748 126.792 60.2976 129.645 62.2408 131.831C64.184 134.017 66.8972 135.367 69.813 135.599H88.8529C91.7686 135.367 94.4818 134.017 96.4251 131.831C98.3683 129.645 99.3911 126.792 99.2795 123.869V99.6012C99.2795 94.4523 103.053 90.1184 106.07 85.9458C107.762 83.6049 108.695 80.8009 108.743 77.9127V53.1495C108.522 48.0933 106.303 43.3315 102.574 39.9101C98.8444 36.4888 93.9094 34.6879 88.8529 34.9029ZM22.6666 36.9429C24.5512 37.0107 26.4132 36.5138 28.0135 35.516C29.6138 34.5182 30.8794 33.065 31.6481 31.3429C32.4168 29.6208 32.6534 27.7082 32.3275 25.8507C32.0017 23.9932 31.1283 22.2754 29.8194 20.9177C28.5105 19.56 26.8258 18.6244 24.9814 18.2308C23.137 17.8373 21.2171 18.0037 19.4681 18.7089C17.719 19.4141 16.2205 20.6258 15.1648 22.1885C14.1091 23.7512 13.5445 25.5938 13.5433 27.4796C13.5207 28.7001 13.7389 29.9131 14.1852 31.0492C14.6315 32.1854 15.2973 33.2224 16.1445 34.1012C16.9918 34.98 18.0038 35.6833 19.1229 36.1709C20.2419 36.6585 21.4461 36.9208 22.6666 36.9429ZM29.4665 41.4762H15.8666C11.8658 41.2909 7.95382 42.6934 4.98218 45.3785C2.01054 48.0636 0.219871 51.8138 0 55.8128V72.8128C0.0329985 75.2995 0.883048 77.7064 2.4191 79.6623C5.10767 83.0857 8.49996 86.6776 8.49996 91.0305V105.226C8.34241 107.661 9.14323 110.062 10.7314 111.914C12.3196 113.767 14.5692 114.926 16.9999 115.143H28.8432C30.0724 115.05 31.2711 114.714 32.3703 114.156C33.4695 113.598 34.4475 112.828 35.248 111.891C36.0485 110.953 36.6558 109.867 37.0348 108.694C37.4138 107.521 37.5571 106.285 37.4565 105.056V90.3711C37.4565 86.156 40.6077 82.6295 43.1136 79.2402C44.5272 77.3284 45.3037 75.0203 45.3331 72.6428V55.6428C45.0704 51.6741 43.2611 47.9669 40.2942 45.3178C37.3273 42.6688 33.4396 41.2895 29.4665 41.4762ZM135.999 36.9429C137.884 37.0107 139.746 36.5138 141.346 35.516C142.947 34.5182 144.212 33.065 144.981 31.3429C145.75 29.6208 145.986 27.7082 145.66 25.8507C145.334 23.9932 144.461 22.2754 143.152 20.9177C141.843 19.56 140.159 18.6244 138.314 18.2308C136.47 17.8373 134.55 18.0037 132.801 18.7089C131.052 19.4141 129.553 20.6258 128.498 22.1885C127.442 23.7512 126.877 25.5938 126.876 27.4796C126.854 28.7001 127.072 29.9131 127.518 31.0492C127.964 32.1854 128.63 33.2224 129.477 34.1012C130.325 34.98 131.337 35.6833 132.456 36.1709C133.575 36.6585 134.779 36.9208 135.999 36.9429ZM142.799 41.4762H129.199C125.199 41.2909 121.287 42.6934 118.315 45.3785C115.343 48.0636 113.553 51.8138 113.333 55.8128V72.8128C113.366 75.2995 114.216 77.7064 115.752 79.6623C118.44 83.0857 121.833 86.6776 121.833 91.0305V105.226C121.675 107.661 122.476 110.062 124.064 111.914C125.652 113.767 127.902 114.926 130.333 115.143H142.063C143.292 115.05 144.491 114.714 145.59 114.156C146.689 113.598 147.667 112.828 148.467 111.891C149.268 110.953 149.875 109.867 150.254 108.694C150.633 107.521 150.777 106.285 150.676 105.056V90.4128C150.676 86.1819 153.862 82.6514 156.401 79.2667C157.836 77.3531 158.629 75.0345 158.666 72.6428V55.6428C158.403 51.6741 156.594 47.9669 153.627 45.3178C150.66 42.6688 146.772 41.2895 142.799 41.4762Z" fill="white"/>
</svg>
