<svg width="72" height="72" viewBox="0 0 72 72" fill="none" xmlns="http://www.w3.org/2000/svg">
<path d="M8.99999 33C9.79564 33 10.5587 33.3161 11.1213 33.8787C11.6839 34.4413 12 35.2044 12 36C11.9643 41.6191 13.8891 47.0747 17.443 51.4274C20.9969 55.78 25.9574 58.757 31.4701 59.8458C36.9828 60.9346 42.7027 60.067 47.6445 57.3923C52.5863 54.7177 56.4408 50.4035 58.544 45.1928C60.6473 39.982 60.8676 34.2009 59.1671 28.8452C57.4667 23.4895 53.9518 18.8944 49.2279 15.8513C44.504 12.8083 38.8668 11.5077 33.2872 12.1737C27.7076 12.8397 22.5349 15.4306 18.66 19.5H25.86C26.6556 19.5 27.4187 19.8161 27.9813 20.3787C28.5439 20.9413 28.86 21.7043 28.86 22.5C28.86 23.2956 28.5439 24.0587 27.9813 24.6213C27.4187 25.1839 26.6556 25.5 25.86 25.5H12.27C11.4743 25.5 10.7113 25.1839 10.1487 24.6213C9.58606 24.0587 9.26999 23.2956 9.26999 22.5V9C9.26999 8.20435 9.58606 7.44129 10.1487 6.87868C10.7113 6.31607 11.4743 6 12.27 6C13.0656 6 13.8287 6.31607 14.3913 6.87868C14.9539 7.44129 15.27 8.20435 15.27 9V14.31C20.266 9.53417 26.7577 6.62986 33.6479 6.08799C40.5381 5.54612 47.4041 7.39993 53.0852 11.3361C58.7664 15.2722 62.9142 21.0492 64.8275 27.6906C66.7408 34.3319 66.3024 41.4302 63.5862 47.7856C60.87 54.141 56.0427 59.3635 49.9203 62.5705C43.7979 65.7775 36.756 66.7722 29.9849 65.3864C23.2138 64.0007 17.1288 60.3194 12.7586 54.965C8.38838 49.6106 6.00099 42.9115 5.99999 36C5.99999 35.2044 6.31606 34.4413 6.87867 33.8787C7.44128 33.3161 8.20434 33 8.99999 33Z" fill="white"/>
</svg>
