<svg width="1854" height="15" viewBox="0 0 1854 15" fill="none" xmlns="http://www.w3.org/2000/svg">
<path d="M1853.71 8.07088C1854.1 7.68035 1854.1 7.04719 1853.71 6.65666L1847.34 0.292702C1846.95 -0.0978227 1846.32 -0.0978227 1845.93 0.292702C1845.54 0.683226 1845.54 1.31639 1845.93 1.70692L1851.59 7.36377L1845.93 13.0206C1845.54 13.4111 1845.54 14.0443 1845.93 14.4348C1846.32 14.8254 1846.95 14.8254 1847.34 14.4348L1853.71 8.07088ZM0.292847 6.65666C-0.0976562 7.04719 -0.0976562 7.68035 0.292847 8.07088L6.65686 14.4348C7.04736 14.8254 7.68054 14.8254 8.07104 14.4348C8.46155 14.0443 8.46155 13.4111 8.07104 13.0206L2.41418 7.36377L8.07104 1.70692C8.46155 1.31639 8.46155 0.683226 8.07104 0.292702C7.68054 -0.0978227 7.04736 -0.0978227 6.65686 0.292702L0.292847 6.65666ZM1853 7.36377V6.36377L1 6.36377V7.36377V8.36377L1853 8.36377V7.36377Z" fill="white"/>
</svg>
