<svg width="42" height="36" viewBox="0 0 42 36" fill="none" xmlns="http://www.w3.org/2000/svg">
<path d="M38.9989 14.2338H10.2187L17.1211 6.09328C17.6863 5.4239 18.0037 4.51602 18.0037 3.56936C18.0037 2.62271 17.6863 1.71483 17.1211 1.04544C16.556 0.376055 15.7896 0 14.9904 0C14.1912 0 13.4247 0.376055 12.8596 1.04544L0.855345 15.2647C0.582126 15.6028 0.367955 16.0014 0.225121 16.4378C-0.0750403 17.3033 -0.0750403 18.274 0.225121 19.1395C0.367955 19.5758 0.582126 19.9745 0.855345 20.3125L12.8596 34.5318C13.1386 34.865 13.4705 35.1295 13.8362 35.3099C14.2019 35.4904 14.5942 35.5833 14.9904 35.5833C15.3866 35.5833 15.7788 35.4904 16.1445 35.3099C16.5102 35.1295 16.8422 34.865 17.1211 34.5318C17.4024 34.2014 17.6257 33.8082 17.778 33.375C17.9304 32.9418 18.0089 32.4772 18.0089 32.0079C18.0089 31.5386 17.9304 31.074 17.778 30.6408C17.6257 30.2076 17.4024 29.8145 17.1211 29.484L10.2187 21.3435H38.9989C39.7949 21.3435 40.5582 20.9689 41.121 20.3023C41.6838 19.6356 42 18.7314 42 17.7886C42 16.8458 41.6838 15.9417 41.121 15.275C40.5582 14.6083 39.7949 14.2338 38.9989 14.2338Z" fill="white"/>
</svg>
