<svg width="13" height="22" viewBox="0 0 13 22" fill="none" xmlns="http://www.w3.org/2000/svg">
<path d="M2.04688 0.5C2.39432 0.50239 2.72978 0.620269 3.00098 0.833008L3.11328 0.929688L3.11621 0.932617L11.7383 9.25488L11.9092 9.43555C12.0707 9.6238 12.2035 9.83561 12.3018 10.0645C12.4328 10.3698 12.5 10.699 12.5 11.0312C12.5 11.3633 12.4327 11.6919 12.3018 11.9971C12.1712 12.3012 11.9797 12.5754 11.7402 12.8037L3.17773 21.0684C2.57975 21.6455 1.61789 21.6446 1.01953 21.0684V21.0674C0.876021 20.9303 0.760973 20.7663 0.682617 20.584C0.603647 20.4002 0.563477 20.202 0.563477 20.002C0.563484 19.8019 0.603655 19.6037 0.682617 19.4199C0.761585 19.2362 0.877394 19.0703 1.02246 18.9326L8.85059 11.3789L8.85352 11.376C8.90018 11.3316 8.93749 11.2779 8.96289 11.2188C8.98824 11.1596 9.00098 11.0956 9.00098 11.0312C9.00094 10.9669 8.98828 10.9029 8.96289 10.8438C8.93753 10.7848 8.90003 10.7318 8.85352 10.6875L8.85059 10.6846L0.956055 3.06738L0.957031 3.06641C0.811947 2.92776 0.695634 2.76189 0.617188 2.57715C0.53824 2.39118 0.498441 2.1903 0.5 1.98828C0.501624 1.78645 0.544251 1.5869 0.625977 1.40234C0.707674 1.21787 0.82732 1.05283 0.975586 0.916016C1.26713 0.646449 1.64982 0.497285 2.04688 0.5Z" fill="#161921" stroke="#161921"/>
</svg>
