<svg width="128" height="166" viewBox="0 0 128 166" fill="none" xmlns="http://www.w3.org/2000/svg">
<path d="M18.3854 18.9282C6.12868 31.5406 0.000320435 48.1581 0.000320435 64.8408C-0.0545959 82.3884 6.78924 99.2591 19.0646 111.836L64.6801 166L109.616 112.505C134.352 87.0435 134.126 45.2814 108.937 19.5976C96.2313 6.53001 79.5999 3.03833e-05 63.0607 3.03833e-05C54.7189 -0.00822085 46.4615 1.66421 38.7843 4.91689C31.1072 8.16957 24.1687 12.9354 18.3854 18.9282ZM33.7543 61.5739C33.755 55.6106 35.5296 49.7814 38.8536 44.8234C42.1776 39.8655 46.9017 36.0014 52.4286 33.7199C57.9555 31.4383 64.037 30.8418 69.904 32.0056C75.771 33.1695 81.1601 36.0415 85.3897 40.2584C89.6194 44.4754 92.4997 49.848 93.6665 55.6968C94.8332 61.5456 94.234 67.6079 91.9446 73.1172C89.6552 78.6265 85.7785 83.3354 80.8045 86.6484C75.8306 89.9613 69.9829 91.7296 64.0008 91.7296C60.0285 91.7296 56.0951 90.9495 52.4252 89.434C48.7552 87.9184 45.4207 85.6971 42.612 82.8969C39.8034 80.0966 37.5755 76.7722 36.0557 73.1136C34.5358 69.455 33.7538 65.5338 33.7543 61.5739Z" fill="#0071FE"/>
</svg>
