<svg width="54" height="54" viewBox="0 0 54 54" fill="none" xmlns="http://www.w3.org/2000/svg">
<path d="M31.7553 26.9971L53.0024 5.78149C53.6375 5.14635 53.9942 4.28493 53.9942 3.38672C53.9942 2.4885 53.6375 1.62708 53.0024 0.991946C52.3673 0.356814 51.506 0 50.6079 0C49.7098 0 48.8484 0.356814 48.2134 0.991946L27 22.2413L5.78663 0.991946C5.15156 0.356814 4.29023 7.97473e-07 3.39211 8.04166e-07C2.49399 8.10858e-07 1.63266 0.356814 0.997596 0.991946C0.362531 1.62708 0.00575641 2.4885 0.00575641 3.38672C0.0057564 4.28493 0.362531 5.14635 0.997596 5.78149L22.2447 26.9971L0.997596 48.2128C0.681492 48.5263 0.430594 48.8994 0.259374 49.3104C0.0881535 49.7214 0 50.1623 0 50.6075C0 51.0528 0.0881535 51.4937 0.259374 51.9047C0.430594 52.3157 0.681492 52.6887 0.997596 53.0023C1.31112 53.3184 1.68413 53.5694 2.0951 53.7406C2.50608 53.9118 2.94689 54 3.39211 54C3.83733 54 4.27814 53.9118 4.68912 53.7406C5.10009 53.5694 5.4731 53.3184 5.78663 53.0023L27 31.7529L48.2134 53.0023C48.5269 53.3184 48.8999 53.5694 49.3109 53.7406C49.7219 53.9118 50.1627 54 50.6079 54C51.0531 54 51.4939 53.9118 51.9049 53.7406C52.3159 53.5694 52.6889 53.3184 53.0024 53.0023C53.3185 52.6887 53.5694 52.3157 53.7406 51.9047C53.9118 51.4937 54 51.0528 54 50.6075C54 50.1623 53.9118 49.7214 53.7406 49.3104C53.5694 48.8994 53.3185 48.5263 53.0024 48.2128L31.7553 26.9971Z" fill="white"/>
</svg>
