<svg width="20" height="32" viewBox="0 0 20 32" fill="none" xmlns="http://www.w3.org/2000/svg">
<path d="M19.3486 14.596C19.3246 14.576 19.2926 14.568 19.2686 14.548L3.84011 0.584961C2.97208 -0.194985 1.56404 -0.194985 0.696018 0.584961C0.688017 0.59296 0.684018 0.600958 0.680018 0.608957C0.469834 0.782488 0.300081 0.999819 0.182625 1.24576C0.0651685 1.4917 0.00284153 1.76033 -1.30991e-06 2.03286L-8.90428e-08 29.9629C0.00448491 30.2405 0.0698608 30.5136 0.191511 30.7631C0.313161 31.0126 0.488118 31.2324 0.704021 31.4068L0.696019 31.4148C1.13277 31.7923 1.69078 32 2.26806 32C2.84535 32 3.40335 31.7923 3.84011 31.4148L19.3486 17.4198C19.5528 17.2456 19.7168 17.0291 19.8293 16.7854C19.9418 16.5416 20 16.2763 20 16.0079C20 15.7394 19.9418 15.4742 19.8293 15.2304C19.7168 14.9867 19.5528 14.7702 19.3486 14.596Z" fill="white"/>
</svg>
