<svg width="43" height="43" viewBox="0 0 43 43" fill="none" xmlns="http://www.w3.org/2000/svg">
<path d="M40.8382 21.5062C40.2681 21.5062 39.7214 21.7327 39.3183 22.1358C38.9152 22.5389 38.6888 23.0856 38.6888 23.6556V36.5519C38.6888 37.1219 38.4623 37.6686 38.0592 38.0717C37.6562 38.4748 37.1095 38.7012 36.5394 38.7012H6.44813C5.87808 38.7012 5.33138 38.4748 4.92829 38.0717C4.52521 37.6686 4.29875 37.1219 4.29875 36.5519V6.46059C4.29875 5.89054 4.52521 5.34384 4.92829 4.94075C5.33138 4.53767 5.87808 4.31122 6.44813 4.31122H19.3444C19.9144 4.31122 20.4611 4.08476 20.8642 3.68168C21.2673 3.27859 21.4938 2.73189 21.4938 2.16184C21.4938 1.59179 21.2673 1.04509 20.8642 0.642001C20.4611 0.238914 19.9144 0.0124628 19.3444 0.0124628H6.44813C4.73798 0.0124628 3.09787 0.691818 1.88861 1.90108C0.679355 3.11034 0 4.75044 0 6.46059V36.5519C0 38.262 0.679355 39.9021 1.88861 41.1114C3.09787 42.3206 4.73798 43 6.44813 43H36.5394C38.2496 43 39.8897 42.3206 41.0989 41.1114C42.3082 39.9021 42.9875 38.262 42.9875 36.5519V23.6556C42.9875 23.0856 42.7611 22.5389 42.358 22.1358C41.9549 21.7327 41.4082 21.5062 40.8382 21.5062ZM8.59751 23.1398V32.2531C8.59751 32.8232 8.82396 33.3699 9.22705 33.773C9.63013 34.176 10.1768 34.4025 10.7469 34.4025H19.8602C20.1431 34.4041 20.4235 34.3499 20.6854 34.2429C20.9473 34.136 21.1855 33.9784 21.3863 33.7792L36.26 18.884L42.3642 12.9087C42.5657 12.7089 42.7256 12.4712 42.8347 12.2093C42.9438 11.9473 43 11.6664 43 11.3827C43 11.0989 42.9438 10.818 42.8347 10.5561C42.7256 10.2941 42.5657 10.0564 42.3642 9.85661L33.2509 0.635782C33.051 0.434324 32.8133 0.274423 32.5514 0.165302C32.2895 0.0561809 32.0085 0 31.7248 0C31.4411 0 31.1601 0.0561809 30.8982 0.165302C30.6363 0.274423 30.3986 0.434324 30.1987 0.635782L24.1375 6.71852L9.22083 21.6137C9.02162 21.8145 8.86402 22.0527 8.75705 22.3146C8.65009 22.5765 8.59587 22.8569 8.59751 23.1398ZM31.7248 5.19246L37.8075 11.2752L34.7554 14.3273L28.6727 8.24458L31.7248 5.19246ZM12.8963 24.021L25.6421 11.2752L31.7248 17.3579L18.979 30.1037H12.8963V24.021Z" fill="#008AD3"/>
</svg>
