<svg width="43" height="43" viewBox="0 0 43 43" fill="none" xmlns="http://www.w3.org/2000/svg">
<path d="M36.55 0H6.45C4.73935 0 3.09877 0.679552 1.88916 1.88916C0.679552 3.09877 0 4.73935 0 6.45V36.55C0 38.2606 0.679552 39.9012 1.88916 41.1108C3.09877 42.3204 4.73935 43 6.45 43H36.55C38.2606 43 39.9012 42.3204 41.1108 41.1108C42.3204 39.9012 43 38.2606 43 36.55V6.45C43 4.73935 42.3204 3.09877 41.1108 1.88916C39.9012 0.679552 38.2606 0 36.55 0ZM30.2935 4.3L21.6935 12.9H12.7065L21.3065 4.3H30.2935ZM4.3 6.45C4.3 5.87978 4.52652 5.33292 4.92972 4.92972C5.33292 4.52652 5.87978 4.3 6.45 4.3H15.2435L6.6435 12.9H4.3V6.45ZM38.7 36.55C38.7 37.1202 38.4735 37.6671 38.0703 38.0703C37.6671 38.4735 37.1202 38.7 36.55 38.7H6.45C5.87978 38.7 5.33292 38.4735 4.92972 38.0703C4.52652 37.6671 4.3 37.1202 4.3 36.55V17.2H38.7V36.55ZM38.7 12.9H27.7565L36.3565 4.3H36.55C37.1202 4.3 37.6671 4.52652 38.0703 4.92972C38.4735 5.33292 38.7 5.87978 38.7 6.45V12.9Z" fill="white"/>
</svg>
