<svg width="39" height="43" viewBox="0 0 39 43" fill="none" xmlns="http://www.w3.org/2000/svg">
<path d="M36.8333 12.936L23.8334 1.64049C22.6417 0.584052 21.0989 0 19.5001 0C17.9012 0 16.3585 0.584052 15.1668 1.64049L2.16686 12.936C1.47866 13.546 0.929482 14.2943 0.555891 15.1312C0.182299 15.968 -0.00713383 16.8741 0.000205386 17.7892V36.5577C0.000205386 38.2663 0.68502 39.9049 1.904 41.1131C3.12298 42.3213 4.77626 43 6.50016 43H32.5C34.2239 43 35.8772 42.3213 37.0961 41.1131C38.3151 39.9049 38.9999 38.2663 38.9999 36.5577V17.7677C39.0042 16.8562 38.8133 15.9543 38.4398 15.1214C38.0663 14.2885 37.5187 13.5436 36.8333 12.936ZM23.8334 38.7051H15.1668V27.968C15.1668 27.3985 15.395 26.8522 15.8014 26.4495C16.2077 26.0468 16.7588 25.8206 17.3334 25.8206H21.6667C22.2413 25.8206 22.7924 26.0468 23.1988 26.4495C23.6051 26.8522 23.8334 27.3985 23.8334 27.968V38.7051ZM34.6666 36.5577C34.6666 37.1272 34.4384 37.6735 34.032 38.0762C33.6257 38.4789 33.0746 38.7051 32.5 38.7051H28.1667V27.968C28.1667 26.2594 27.4819 24.6208 26.2629 23.4126C25.0439 22.2044 23.3906 21.5257 21.6667 21.5257H17.3334C15.6095 21.5257 13.9562 22.2044 12.7373 23.4126C11.5183 24.6208 10.8335 26.2594 10.8335 27.968V38.7051H6.50016C5.92553 38.7051 5.37443 38.4789 4.96811 38.0762C4.56178 37.6735 4.33351 37.1272 4.33351 36.5577V17.7677C4.3339 17.4628 4.39979 17.1615 4.52681 16.8838C4.65383 16.6061 4.83906 16.3584 5.07017 16.1571L18.0701 4.88311C18.4655 4.53884 18.9738 4.34897 19.5001 4.34897C20.0264 4.34897 20.5347 4.53884 20.9301 4.88311L33.93 16.1571C34.1611 16.3584 34.3463 16.6061 34.4733 16.8838C34.6003 17.1615 34.6662 17.4628 34.6666 17.7677V36.5577Z" fill="#008AD3"/>
</svg>
