<svg width="43" height="43" viewBox="0 0 43 43" fill="none" xmlns="http://www.w3.org/2000/svg">
<path d="M21.5 8.6C20.9298 8.6 20.3829 8.82652 19.9797 9.22972C19.5765 9.63292 19.35 10.1798 19.35 10.75V32.25C19.35 32.8202 19.5765 33.3671 19.9797 33.7703C20.3829 34.1735 20.9298 34.4 21.5 34.4C22.0702 34.4 22.6171 34.1735 23.0203 33.7703C23.4235 33.3671 23.65 32.8202 23.65 32.25V10.75C23.65 10.1798 23.4235 9.63292 23.0203 9.22972C22.6171 8.82652 22.0702 8.6 21.5 8.6ZM10.75 21.5C10.1798 21.5 9.63292 21.7265 9.22972 22.1297C8.82652 22.5329 8.6 23.0798 8.6 23.65V32.25C8.6 32.8202 8.82652 33.3671 9.22972 33.7703C9.63292 34.1735 10.1798 34.4 10.75 34.4C11.3202 34.4 11.8671 34.1735 12.2703 33.7703C12.6735 33.3671 12.9 32.8202 12.9 32.25V23.65C12.9 23.0798 12.6735 22.5329 12.2703 22.1297C11.8671 21.7265 11.3202 21.5 10.75 21.5ZM32.25 17.2C31.6798 17.2 31.1329 17.4265 30.7297 17.8297C30.3265 18.2329 30.1 18.7798 30.1 19.35V32.25C30.1 32.8202 30.3265 33.3671 30.7297 33.7703C31.1329 34.1735 31.6798 34.4 32.25 34.4C32.8202 34.4 33.3671 34.1735 33.7703 33.7703C34.1735 33.3671 34.4 32.8202 34.4 32.25V19.35C34.4 18.7798 34.1735 18.2329 33.7703 17.8297C33.3671 17.4265 32.8202 17.2 32.25 17.2ZM36.55 0H6.45C4.73935 0 3.09877 0.679552 1.88916 1.88916C0.679552 3.09877 0 4.73935 0 6.45V36.55C0 38.2606 0.679552 39.9012 1.88916 41.1108C3.09877 42.3204 4.73935 43 6.45 43H36.55C38.2606 43 39.9012 42.3204 41.1108 41.1108C42.3204 39.9012 43 38.2606 43 36.55V6.45C43 4.73935 42.3204 3.09877 41.1108 1.88916C39.9012 0.679552 38.2606 0 36.55 0ZM38.7 36.55C38.7 37.1202 38.4735 37.6671 38.0703 38.0703C37.6671 38.4735 37.1202 38.7 36.55 38.7H6.45C5.87978 38.7 5.33292 38.4735 4.92972 38.0703C4.52652 37.6671 4.3 37.1202 4.3 36.55V6.45C4.3 5.87978 4.52652 5.33292 4.92972 4.92972C5.33292 4.52652 5.87978 4.3 6.45 4.3H36.55C37.1202 4.3 37.6671 4.52652 38.0703 4.92972C38.4735 5.33292 38.7 5.87978 38.7 6.45V36.55Z" fill="#fff"/>
</svg>
