<svg width="313" height="284" viewBox="0 0 313 284" fill="none" xmlns="http://www.w3.org/2000/svg">
<path d="M309.251 4.42163C304.33 -1.05564 295.899 -1.50587 290.422 3.41601C284.945 8.3379 284.495 16.7681 289.417 22.2454C294.338 27.7226 302.769 28.1729 308.246 23.251C313.723 18.3291 314.173 9.89891 309.251 4.42163ZM23.2515 261.422C18.3296 255.944 9.89941 255.494 4.42213 260.416C-1.05514 265.338 -1.50538 273.768 3.41651 279.245C8.33839 284.723 16.7686 285.173 22.2459 280.251C27.7231 275.329 28.1734 266.899 23.2515 261.422ZM299.334 13.3335L297.663 11.474L11.663 268.474L13.334 270.333L15.005 272.193L301.005 15.193L299.334 13.3335Z" fill="white"/>
</svg>
