<svg width="33" height="55" viewBox="0 0 33 55" fill="none" xmlns="http://www.w3.org/2000/svg">
<path d="M6.33475 53.9919L31.928 29.9351C32.2647 29.6326 32.5346 29.2598 32.7195 28.8418C32.9044 28.4237 33 27.97 33 27.5109C33 27.0519 32.9044 26.5982 32.7195 26.1801C32.5346 25.762 32.2647 25.3892 31.928 25.0867C31.8878 25.0524 31.8343 25.0387 31.7942 25.0044L6.33475 1.0025C5.61704 0.356336 4.6945 0 3.73931 0C2.78413 0 1.86158 0.356336 1.14387 1.0025C1.13718 1.01621 1.13049 1.03679 1.11711 1.0505C0.771 1.35298 0.492189 1.72803 0.299481 2.15036C0.106773 2.57269 0.00464934 3.03247 0 3.4987V51.5026C0 52.4832 0.454871 53.3541 1.15725 53.9782L1.14387 53.9919C2.58206 55.336 4.90325 55.336 6.33475 53.9919Z" fill="white"/>
</svg>
